<svg width="290" height="329" viewBox="0 0 290 329" fill="none" xmlns="http://www.w3.org/2000/svg">
<path fill-rule="evenodd" clip-rule="evenodd" d="M140.359 0.568881C138.356 1.02088 134.329 2.79888 131.409 4.52088C101.893 21.9239 65.406 34.9499 26.5 41.9749C9.634 45.0209 4.915 47.1379 2 52.9669C0.085 56.7969 0 58.9669 0 103.967C0 144.695 0.243001 152.435 1.818 161.967C5.804 186.089 11.136 203.675 20.009 221.967C36.496 255.952 67.931 288.216 106.5 310.739C120.615 318.982 135.828 326.173 142.136 327.585C150.021 329.349 160.68 327.69 169.185 323.373C175.788 320.022 212.586 292.89 224.5 282.589C241.638 267.771 255.095 251.659 261.352 238.467C263.309 234.342 265.292 230.809 265.76 230.615C267.303 229.977 274.581 213.205 279.492 198.967C283.931 186.101 285.629 178.495 288.465 158.775C289.974 148.291 289.74 57.9929 288.194 53.5019C286.847 49.5929 282.038 45.9019 276.599 44.6029C274.62 44.1309 265.8 42.3599 257 40.6689C227.865 35.0709 205.819 27.4129 176.944 12.8589C152.119 0.345881 147.789 -1.10812 140.359 0.568881ZM157.606 37.3879C183.358 50.8789 214.406 62.0289 255.314 72.4769L259.628 73.5789L259.165 115.773C258.719 156.452 258.01 167.857 255.668 172.019C255.065 173.09 253.631 177.551 252.48 181.932C251.33 186.313 250.007 190.363 249.542 190.932C249.076 191.501 248.163 193.992 247.512 196.467C243.613 211.286 223.444 241.567 207.653 256.311C190.88 271.971 158.585 293.053 147.514 295.57C144.383 296.282 142.702 295.646 131.014 289.328C106.915 276.301 92.337 265.428 76 248.294C63.775 235.473 55.404 223.855 48.094 209.565C33.242 180.528 29.463 156.586 31.121 102.019L32 73.0709L50.5 68.3469C80.617 60.6549 109.052 50.1509 132.5 38.0559C138.275 35.0769 144.173 32.5999 145.606 32.5529C147.04 32.5059 152.44 34.6819 157.606 37.3879ZM196.96 108.814C194.315 110.014 180.907 124.114 162.5 145.051C143.195 167.009 135.962 174.755 133.874 175.706C131.677 176.707 130.442 175.741 116.736 162.298C100.746 146.614 95.966 143.594 89.155 144.872C80.612 146.475 75.66 153.379 76.938 161.904C77.586 166.22 78.673 167.451 101.008 189.134C113.874 201.624 125.435 212.418 126.7 213.12C129.425 214.632 137.878 214.87 140.425 213.507C141.412 212.979 147.57 206.583 154.109 199.293C160.649 192.003 168.7 183.076 172 179.455C175.3 175.834 182.95 167.283 189 160.453C195.05 153.623 203.321 144.45 207.38 140.069C220.114 126.326 221.628 118.514 213.103 110.55C209.94 107.595 201.618 106.7 196.96 108.814Z" fill="#8B5CF6"/>
</svg>
